<?xml version="1.0" encoding="utf-8"?>
<!-- Generator: Adobe Illustrator 26.0.2, SVG Export Plug-In . SVG Version: 6.00 Build 0)  -->
<svg version="1.1" id="Capa_1" xmlns="http://www.w3.org/2000/svg" xmlns:xlink="http://www.w3.org/1999/xlink" x="0px" y="0px"
	 viewBox="0 0 512 322.1" style="enable-background:new 0 0 512 322.1;" xml:space="preserve">
<style type="text/css">
	.st0{fill:#333333;}
	.st1{fill:#328E57;}
	.st2{fill:#FFE000;}
	.st3{fill:#FF78FC;}
</style>
<path class="st0" d="M345.7,130.8c0.1-0.1,0.3-0.3,0.4-0.5c0.1-0.1,0.2-0.2,0.3-0.3c0.2-0.2,0.3-0.4,0.5-0.6
	c0.1-0.1,0.1-0.1,0.2-0.2c0.2-0.2,0.4-0.5,0.6-0.8c0.1-0.1,0.1-0.2,0.2-0.3c0.1-0.2,0.2-0.3,0.4-0.5c0.1-0.1,0.2-0.2,0.2-0.4
	c0.1-0.1,0.2-0.3,0.3-0.5c0.1-0.1,0.2-0.2,0.2-0.4c0.1-0.2,0.2-0.3,0.3-0.5c0.1-0.1,0.1-0.2,0.2-0.4c0.1-0.2,0.2-0.4,0.3-0.5
	c0.1-0.1,0.1-0.2,0.2-0.4c0.1-0.3,0.3-0.6,0.4-0.9c0.1-0.1,0.1-0.2,0.2-0.4c0.1-0.2,0.2-0.4,0.2-0.6c0.1-0.1,0.1-0.3,0.2-0.5
	c0.1-0.2,0.1-0.4,0.2-0.5c0.1-0.2,0.1-0.3,0.2-0.5c0.1-0.2,0.1-0.4,0.2-0.5c0-0.2,0.1-0.3,0.1-0.5c0-0.2,0.1-0.4,0.1-0.5
	c0-0.2,0.1-0.3,0.1-0.5c0-0.2,0.1-0.4,0.1-0.6c0-0.2,0.1-0.4,0.1-0.6c0-0.2,0.1-0.5,0.1-0.7c0,0,0-0.1,0-0.1c0-0.1,0-0.2,0-0.3
	c0-0.4,0.1-0.7,0.1-1c0-0.1,0-0.1,0-0.2c0-0.4,0.1-0.7,0.1-1c0,0,0-0.1,0-0.1c0-0.4,0-0.8,0.1-1.2c0-0.1,0-0.1,0-0.2
	c0-0.4,0-0.8,0-1.2c-0.1-5.2-3.6-10.4-8.9-10.2l0,0l0,0c-2.7,0.1-5.2,1.4-7.9,1.8c-2.3,0.4-5.3,1-8.4,1.1c-4,0.2-8,0-10.7-1.9
	c-5.1-3.6-2.6-12.3-7.7-15.8c-1.2-0.9-2.6-1-4-1c-2,0.1-4.1,0.8-6,0.9c-0.4,0-0.7,0-1,0c-3.9-0.2-7.3-3.2-10.2-5.7
	c-5-4.4-4.6-12-10.3-16.2c-0.2-0.1-0.4-0.2-0.5-0.4c-0.1,0-0.1-0.1-0.2-0.1c-0.1-0.1-0.3-0.2-0.4-0.2c-0.1-0.1-0.2-0.1-0.3-0.2
	c0,0,0,0,0,0c0,0,0,0,0,0c-0.1-0.1-0.3-0.1-0.4-0.2c-0.1,0-0.1-0.1-0.2-0.1c-0.1,0-0.1-0.1-0.2-0.1c0,0,0,0-0.1,0
	c-0.1-0.1-0.3-0.1-0.4-0.2c0,0-0.1,0-0.1-0.1c-0.1,0-0.1-0.1-0.2-0.1c0,0,0,0-0.1,0c-0.1-0.1-0.3-0.1-0.4-0.2c0,0,0,0,0,0
	c-0.1,0-0.2-0.1-0.3-0.1c0,0-0.1,0-0.1,0c-0.1-0.1-0.3-0.1-0.4-0.2c-0.1,0-0.2-0.1-0.4-0.1c0,0-0.1,0-0.1,0c-0.1,0-0.2-0.1-0.4-0.1
	c-0.1,0-0.2-0.1-0.4-0.1c0,0-0.1,0-0.1,0c-0.1,0-0.2-0.1-0.4-0.1c-0.1,0-0.2-0.1-0.4-0.1c0,0-0.1,0-0.1,0c-0.1,0-0.2-0.1-0.4-0.1
	c-0.1,0-0.2-0.1-0.4-0.1c0,0-0.1,0-0.1,0c-0.1,0-0.2-0.1-0.4-0.1c-0.1,0-0.2-0.1-0.4-0.1c0,0-0.1,0-0.1,0c-0.1,0-0.2,0-0.4-0.1
	c-0.1,0-0.2,0-0.4-0.1c0,0-0.1,0-0.1,0c-0.1,0-0.2,0-0.4,0c-0.1,0-0.2,0-0.4,0c-0.1,0-0.1,0-0.2,0c-0.1,0-0.2,0-0.4,0s-0.2,0-0.4,0
	c-0.1,0-0.1,0-0.2,0c-0.1,0-0.2,0-0.4,0c-0.1,0-0.2,0-0.3,0c-0.1,0-0.1,0-0.2,0c-0.1,0-0.2,0-0.4,0c-0.1,0-0.2,0-0.3,0
	c-0.1,0-0.1,0-0.2,0c-0.1,0-0.2,0-0.4,0c0,0-0.1,0-0.1,0c0,0-0.1,0-0.1,0c-0.1,0-0.2,0-0.3,0c-0.1,0-0.2,0-0.4,0c-0.1,0-0.1,0-0.2,0
	c0,0-0.1,0-0.1,0c-0.1,0-0.1,0-0.2,0c-0.1,0-0.3,0-0.5,0c-0.1,0-0.1,0-0.2,0c0,0-0.1,0-0.1,0c-0.1,0-0.1,0-0.2,0c-0.1,0-0.2,0-0.3,0
	c-0.2,0-0.4,0-0.5,0.1l0,0c0,0,0,0,0,0c0,0-0.1,0-0.1,0c-0.1,0-0.1,0-0.2,0h0c-0.1,0-0.2,0-0.4,0.1c-0.1,0-0.1,0-0.2,0h0
	c0,0,0,0-0.1,0s-0.1,0-0.1,0s-0.1,0-0.1,0c-0.2,0-0.4,0.1-0.5,0.1c0,0-0.1,0-0.1,0h0c-0.1,0-0.1,0-0.2,0.1c-0.1,0-0.2,0.1-0.3,0.1
	c0,0-0.1,0-0.1,0h0c0,0,0,0,0,0c-0.2,0-0.4,0.1-0.5,0.2c0,0,0,0,0,0c-0.1,0-0.1,0-0.2,0.1c0,0-0.1,0-0.1,0c-0.1,0-0.1,0-0.2,0.1
	c0,0-0.1,0-0.1,0c-0.1,0-0.1,0-0.2,0.1c0,0,0,0-0.1,0c-0.1,0-0.2,0.1-0.3,0.1c-0.1,0-0.2,0.1-0.4,0.1c0,0-0.1,0-0.1,0
	c-0.1,0-0.2,0.1-0.2,0.1c0,0,0,0-0.1,0l0,0c0,0-0.1,0-0.1,0c-0.1,0-0.2,0.1-0.3,0.1c-0.1,0-0.2,0.1-0.4,0.1h0c0,0-0.1,0-0.1,0.1
	c-0.1,0.1-0.2,0.1-0.4,0.2c-0.1,0-0.2,0.1-0.3,0.2c0,0-0.1,0.1-0.1,0.1c-0.1,0.1-0.2,0.1-0.4,0.2h0c-0.1,0-0.1,0.1-0.2,0.1
	c0,0-0.1,0.1-0.1,0.1l0,0l0,0c-0.1,0.1-0.3,0.2-0.5,0.3c-0.1,0.1-0.2,0.1-0.3,0.2c-0.2,0.1-0.4,0.2-0.5,0.4c0,0,0,0-0.1,0
	c-0.1,0-0.1,0.1-0.2,0.1c-0.1,0.1-0.3,0.2-0.4,0.3c-0.1,0-0.1,0.1-0.2,0.1c-0.1,0.1-0.2,0.1-0.2,0.2c-0.1,0-0.1,0.1-0.2,0.1
	c-0.1,0.1-0.2,0.2-0.4,0.3l0,0l0,0l0,0l0,0c-0.1,0.1-0.2,0.1-0.3,0.2c-3.4,2.9-6,6.9-9.6,9.5c-1.9,1.4-4.2,2.2-6.4,2.3
	c-0.1,0-0.2,0-0.3,0c-0.1,0-0.3,0-0.4,0c-0.1,0-0.2,0-0.3,0c-0.1,0-0.3,0-0.4,0c-0.1,0-0.2,0-0.3,0c-0.1,0-0.3,0-0.5-0.1
	c-0.1,0-0.2,0-0.2-0.1c-0.1,0-0.3-0.1-0.5-0.1c-0.1,0-0.2,0-0.2-0.1c-0.1,0-0.3-0.1-0.5-0.2c-0.1,0-0.1-0.1-0.2-0.1
	c-0.2-0.1-0.3-0.1-0.5-0.2c-0.1,0-0.1-0.1-0.2-0.1c-0.2-0.1-0.4-0.2-0.7-0.4c-3.4-2.3-5.3-5.1-9.6-6c-0.1,0-0.2,0-0.4-0.1
	c-0.2,0-0.5-0.1-0.7-0.1c-0.6,0-1.2,0-1.9,0.2c-0.2,0.1-0.5,0.1-0.7,0.2c-0.1,0-0.1,0-0.2,0.1c-0.2,0.1-0.5,0.1-0.7,0.2
	c-0.1,0-0.1,0-0.2,0.1c-0.2,0.1-0.4,0.1-0.6,0.2c-0.1,0-0.1,0.1-0.2,0.1c-0.2,0.1-0.5,0.2-0.7,0.3c-0.1,0-0.1,0.1-0.2,0.1
	c-0.2,0.1-0.4,0.2-0.6,0.3c0,0-0.1,0-0.1,0.1c-0.2,0.1-0.5,0.3-0.7,0.4c0,0-0.1,0.1-0.1,0.1c-0.5,0.3-0.9,0.6-1.4,1
	c0,0-0.1,0-0.1,0.1c-0.2,0.2-0.4,0.4-0.7,0.5l0,0c-0.2,0.2-0.4,0.4-0.6,0.5c0,0-0.1,0.1-0.1,0.1c0,0-0.1,0-0.1,0.1l0,0
	c-4.9,4.8-8.7,12-11.7,17.4c-4.7,8.5-9.3,17.1-13.6,25.8v0c-4.4,9.1-8.5,18.3-11.7,27.9c-0.4,1.1-0.7,2.3-0.3,3.3
	c0.4,0.9,1.2,1.4,2,1.8c2.7,1.5,5.6,2.3,8.6,2.6c1.8,0.1,3.3-1.6,2.9-3.6c-0.1-0.8-0.1-1.6,0.1-2.4c0.6-2.1,2.8-3.6,4.8-3.3
	c2.8,0.3,4.8,3.3,7.6,3.5c1.9,0.2,3.7-0.9,5.4-1.8c7.5-3.8,16.2-3.2,24.5-2.6c3.6,0.3,7.1,0.6,10.4,2c3.2,1.4,6,3.7,8.7,6.1
	c5.6,4.8,11.2,9.6,16.2,15.1c1.2,1.3,2.5,2.7,3.8,4c1.9,2,3.2,3,5.4,4.2c0,0,0,0,0,0c0.7,0.4,1.5,0.5,2.2,0.4
	c0.5-0.1,1.1-0.3,1.5-0.6c0,0,0.1,0,0.1-0.1c0,0,0.1,0,0.1-0.1c0.3-0.2,0.6-0.6,0.9-0.9c0.4-0.5,0.6-1.1,0.7-1.8
	c0.3-2.1,1.4-4.1,2.9-5.6c1.4-1.4,3-2.7,4.7-3.9c4.5-3.2,9.8-5.7,14.2-8.6c1.4-0.9,2.7-1.7,4.1-2.5c9.3-5.3,19.5-8.3,29.5-12.1
	c0.1,0,0.2-0.1,0.4-0.1c0.2-0.1,0.4-0.1,0.6-0.2c0.1-0.1,0.3-0.1,0.5-0.2c0.2-0.1,0.4-0.1,0.5-0.2c0.1-0.1,0.3-0.1,0.5-0.2
	c0.2-0.1,0.4-0.1,0.5-0.2c0.1-0.1,0.3-0.1,0.4-0.2c0.2-0.1,0.4-0.2,0.5-0.3c0.1-0.1,0.2-0.1,0.4-0.2c0.2-0.1,0.4-0.2,0.6-0.3
	c0.1,0,0.2-0.1,0.3-0.1c0.3-0.2,0.6-0.3,0.9-0.5c0.1-0.1,0.2-0.1,0.3-0.2c0.2-0.1,0.4-0.2,0.6-0.4c0.1-0.1,0.2-0.1,0.4-0.2
	c0.2-0.1,0.4-0.2,0.5-0.4c0.1-0.1,0.2-0.1,0.4-0.2c0.2-0.1,0.4-0.2,0.5-0.4c0.1-0.1,0.2-0.1,0.3-0.2c0.2-0.1,0.4-0.3,0.6-0.4
	c0.1-0.1,0.2-0.1,0.3-0.2c0.3-0.2,0.5-0.4,0.8-0.6c0,0,0.1-0.1,0.1-0.1c0.2-0.2,0.4-0.4,0.6-0.5c0.1-0.1,0.2-0.2,0.3-0.2
	c0.1-0.1,0.3-0.3,0.5-0.4c0.1-0.1,0.2-0.2,0.3-0.3c0.1-0.1,0.3-0.3,0.4-0.4C345.5,131,345.6,130.9,345.7,130.8z"/>
<circle class="st1" cx="312.9" cy="131.1" r="2.5"/>
<circle class="st2" cx="234.1" cy="125" r="2.5"/>
<circle class="st1" cx="268.2" cy="151.7" r="2.5"/>
<circle class="st2" cx="243.5" cy="98.5" r="2.5"/>
<circle class="st1" cx="247" cy="140.6" r="2.5"/>
<circle class="st1" cx="290.8" cy="134.8" r="2.5"/>
<circle class="st1" cx="299.7" cy="112.9" r="2.5"/>
<circle class="st1" cx="221.1" cy="123.3" r="2.5"/>
<circle class="st1" cx="312.9" cy="142.2" r="2.5"/>
<circle class="st3" cx="278.7" cy="154.8" r="2.5"/>
<circle class="st3" cx="330.4" cy="112.7" r="2.5"/>
<circle class="st2" cx="210.1" cy="127.9" r="2.5"/>
</svg>
